<?xml version="1.0" encoding="UTF-8"?><svg id="Layer_2" xmlns="http://www.w3.org/2000/svg" viewBox="0 0 117.81 155.87"><defs><style>.cls-1{fill:#363062;}</style></defs><g id="Layer_1-2"><path class="cls-1" d="M.47,118.43c4.25,31.76,39.61,48.71,66.24,29.02s-4.89-51.51-8.06-54.5-4.86-4.3-6.34-6.61c-2.96-4.62-7.33-11.21-1.7-17.37,2.82-3.35,10.51-3.4,14.17-3.84s7.66,.13,11.82,.89c10.62,2.83,32.89,.62,39.94-26.58S100.19-8.44,72.76,3.43s-21.89,32.04-21.23,37.18c.38,2.98,1.23,6.88,.79,9.76-1.9,12.38-7.53,17.7-18.86,18.94S-3.79,86.67,.47,118.43Z"/></g></svg>