<svg xmlns="http://www.w3.org/2000/svg" viewBox="0 0 1453.42 453.64"><defs><style>.cls-1{fill:#363062;}</style></defs><g id="Layer_2" data-name="Layer 2"><g id="Layer_1-2" data-name="Layer 1"><path class="cls-1" d="M0,0C4.39,12.42,16.09,32.9,35.37,43.47c26.89,14.74,41.95-2.35,70.64,10,34.1,14.63,26.89,44.78,67.93,67A114.43,114.43,0,0,0,230.09,134c33.3-.79,38.58-19,57.06-17.21,46.25,4.58,47.45,118.28,99.62,128.6,29.43,5.83,49.65-26.28,82.41-12.68,16.59,6.89,19.78,18.6,38.95,22.65,21.28,4.49,29.82-7.3,47.09-8.15,46.55-2.3,58.09,79.77,118.64,95.09,40,10.13,55.34-20.61,85.13-6.34,43.54,20.84-1.58,103.25,67.93,115.92s88.53-49.13,163.92-46.18c25.82.45,67.36,22.14,105.06,14.49,38.32-7.78,30.51-55,76.08-83.32,32.89-20.44,58.57-14.59,85.13-18.12C1366.12,304.31,1490,150.47,1443.31,0Z"/></g></g></svg>