<?xml version="1.0" encoding="UTF-8"?><svg id="Layer_2" xmlns="http://www.w3.org/2000/svg" viewBox="0 0 104.5 24.61"><defs><style>.cls-1{fill:#303030;}</style></defs><g id="Layer_1-2"><g><g><path class="cls-1" d="M6.86,8.59c-.23,.85-.32,1.51-.43,2.27H0v-.29c.79-.09,1.08-.22,1.08-.97V2.54c0-.76-.29-.88-1.08-.97v-.29H6.18c.2,0,.23,.05,.26,.28l.15,1.54h-.26c-.46-1.08-.88-1.45-2.02-1.45h-1.25c-.59,0-.85,.14-.85,.89v3.36h2.07c.89,0,1.06-.45,1.25-1.03h.26c-.08,.8-.08,1.62,0,2.42h-.26c-.18-.59-.35-1.03-1.25-1.03H2.22v3.3c0,.76,.31,.93,.72,.93h.69c1.7,0,2.14-.26,2.93-1.9h.29Z"/><path class="cls-1" d="M7.66,10.56c.45-.06,.86-.22,.86-.91V4.5c0-.49-.29-.57-.91-.52v-.29c.8-.11,1.48-.45,1.83-.72,.12,.05,.2,.12,.25,.26l-.39,1.7h.09c.35-1.32,1.03-1.93,1.93-1.93,.77,0,1.25,.46,1.25,.96,0,.34-.23,.63-.59,.63-.62,0-.72-.77-1.33-.77-.74,0-1.06,1.14-1.06,1.83v4.01c0,.69,.54,.85,1.03,.91v.29c-1.03-.05-2.07-.05-2.98,0v-.29Z"/><path class="cls-1" d="M13.04,10.56c.48-.06,.86-.22,.86-.91V2.1c0-.68-.32-1.08-.86-1.08v-.29c.74-.12,1.26-.38,1.77-.72,.12,.05,.22,.12,.26,.26-.09,.31-.09,.89-.09,1.83v1.65l-.22,1.14h.05c.11-.48,.8-1.93,2.5-1.93,1.02,0,2.36,.54,2.36,2.59v4.1c0,.69,.42,.85,.88,.91v.29c-.94-.05-1.88-.05-2.81,0v-.29c.46-.09,.85-.22,.85-.91V5.6c0-1.05-.6-1.97-1.71-1.97s-1.76,.89-1.9,1.97v4.05c0,.69,.42,.82,.88,.91v.29c-.94-.05-1.88-.05-2.82,0v-.29Z"/><path class="cls-1" d="M24.93,3.13h2.65v.29c-.79,.02-1.14,.2-1.43,1.02l-2.16,6.41h-.2l-2.3-6.41c-.28-.82-.59-1-1.17-1.02v-.29h3.01v.29c-.77,.02-.94,.2-.65,1.02l1.6,4.56,1.48-4.56c.29-.82,.02-1-.83-1.02v-.29Z"/><path class="cls-1" d="M33.33,9.43h.35c-.35,.89-1.33,1.59-2.68,1.59-2,0-3.42-1.48-3.42-3.99s1.25-4.04,3.24-4.04c1.5,0,2.91,.86,2.91,2.81,0,.63-.15,.97-.65,.97h-4.26c.08,2.28,1,3.84,2.62,3.84,.66,0,1.51-.28,1.88-1.17Zm-4.5-2.99h3.7c.19-1.97-.51-3.16-1.83-3.16-1.22,0-1.85,1.05-1.87,3.16Z"/><path class="cls-1" d="M34.61,10.56c.45-.06,.86-.22,.86-.91V4.5c0-.49-.29-.57-.91-.52v-.29c.8-.11,1.48-.45,1.83-.72,.12,.05,.2,.12,.25,.26l-.39,1.7h.09c.35-1.32,1.03-1.93,1.93-1.93,.77,0,1.25,.46,1.25,.96,0,.34-.23,.63-.59,.63-.62,0-.72-.77-1.33-.77-.74,0-1.06,1.14-1.06,1.83v4.01c0,.69,.54,.85,1.03,.91v.29c-1.03-.05-2.07-.05-2.98,0v-.29Z"/><path class="cls-1" d="M44.68,3.13h2.65v.29c-.79,.02-1.14,.2-1.43,1.02l-2.16,6.41h-.2l-2.3-6.41c-.28-.82-.59-1-1.17-1.02v-.29h3.01v.29c-.77,.02-.94,.2-.65,1.02l1.6,4.56,1.48-4.56c.29-.82,.02-1-.83-1.02v-.29Z"/><path class="cls-1" d="M48.96,10.42c-.29,0-.48,.25-.48,.43h-.32l-.14-2.03h.31c.25,1.05,1.62,1.83,2.59,1.83,.8,0,1.33-.48,1.33-1.22,0-.89-.96-1.4-2.22-2.19-1.03-.62-1.88-1.26-1.88-2.34s.83-1.91,2.08-1.91c.94,0,1.31,.43,1.73,.43,.17,0,.29-.08,.35-.29h.32l.11,1.93h-.31c-.37-1.11-1.2-1.74-2.05-1.74-.71,0-1.25,.45-1.25,1.19,0,.69,.48,1.17,1.57,1.77,.94,.49,2.51,1.28,2.51,2.74,0,1.23-1.06,1.97-2.17,1.97-.99,0-1.63-.57-2.08-.57Z"/><path class="cls-1" d="M55.01,10.42c-.29,0-.48,.25-.48,.43h-.32l-.14-2.03h.31c.25,1.05,1.62,1.83,2.59,1.83,.8,0,1.33-.48,1.33-1.22,0-.89-.96-1.4-2.22-2.19-1.03-.62-1.88-1.26-1.88-2.34s.83-1.91,2.08-1.91c.94,0,1.31,.43,1.73,.43,.17,0,.29-.08,.35-.29h.32l.11,1.93h-.31c-.37-1.11-1.2-1.74-2.05-1.74-.71,0-1.25,.45-1.25,1.19,0,.69,.48,1.17,1.57,1.77,.94,.49,2.51,1.28,2.51,2.74,0,1.23-1.06,1.97-2.17,1.97-.99,0-1.63-.57-2.08-.57Z"/><path class="cls-1" d="M65.29,9.37c.69,.83,1.48,1.37,1.85,1.37l-.39,.29c-.94,0-1.79-.35-2.7-1.43l-2.1-2.53v2.57c0,.69,.43,.85,.91,.91v.29c-.96-.08-1.96-.08-2.91,0v-.29c.49-.06,.92-.22,.92-.91V2.1c0-.68-.32-1.08-.86-1.08v-.29c.74-.12,1.26-.38,1.77-.72,.12,.05,.2,.12,.26,.26-.09,.31-.09,.89-.09,1.83V6.71c1.42-1.09,3.62-3.21,2.03-3.28v-.29c.99,.05,2.07,.05,2.77,0v.29c-.91,.08-1.59,.74-3.98,3.04l2.5,2.91Z"/><path class="cls-1" d="M66.99,7.01c0-2.65,1.6-4.02,3.38-4.02s3.44,1.43,3.44,4.01-1.62,4.02-3.39,4.02-3.42-1.45-3.42-4.01Zm5.63,.35c0-2.37-1-4.07-2.47-4.07-1.13,0-1.99,1.03-1.99,3.34s1.02,4.07,2.47,4.07c1.14,0,1.99-1.03,1.99-3.34Z"/><path class="cls-1" d="M74.42,10.56c.49-.06,.93-.22,.93-.91V2.1c0-.68-.32-1.08-.86-1.08v-.29c.74-.12,1.26-.38,1.77-.72,.12,.05,.2,.12,.26,.26-.09,.31-.09,.89-.09,1.83v7.55c0,.69,.43,.85,.91,.91v.29c-.96-.08-1.96-.08-2.91,0v-.29Z"/><path class="cls-1" d="M83.7,9.43h.35c-.35,.89-1.33,1.59-2.68,1.59-2,0-3.42-1.48-3.42-3.99s1.25-4.04,3.24-4.04c1.5,0,2.91,.86,2.91,2.81,0,.63-.15,.97-.65,.97h-4.26c.08,2.28,1,3.84,2.62,3.84,.66,0,1.51-.28,1.88-1.17Zm-4.5-2.99h3.7c.19-1.97-.51-3.16-1.83-3.16-1.22,0-1.85,1.05-1.87,3.16Z"/><path class="cls-1" d="M84.98,10.56c.45-.06,.86-.22,.86-.91V4.5c0-.49-.29-.57-.91-.52v-.29c.8-.11,1.48-.45,1.83-.72,.12,.05,.2,.12,.25,.26l-.39,1.7h.09c.35-1.32,1.03-1.93,1.93-1.93,.77,0,1.25,.46,1.25,.96,0,.34-.23,.63-.59,.63-.62,0-.72-.77-1.33-.77-.74,0-1.06,1.14-1.06,1.83v4.01c0,.69,.54,.85,1.03,.91v.29c-1.03-.05-2.07-.05-2.98,0v-.29Z"/><path class="cls-1" d="M90.47,10.56c.48-.06,.86-.22,.86-.91V4.5c0-.49-.29-.57-.91-.52v-.29c.8-.11,1.45-.43,1.8-.72,.12,.05,.2,.12,.25,.26l-.29,1.65h.06c.09-.46,.72-1.88,2.45-1.88,1.03,0,2.31,.51,2.31,2.56v4.1c0,.69,.42,.85,.88,.91v.29c-.94-.05-1.88-.05-2.81,0v-.29c.46-.09,.85-.22,.85-.91V5.6c0-1.11-.63-1.94-1.73-1.94s-1.79,.88-1.79,1.94v4.05c0,.69,.42,.82,.88,.91v.29c-.94-.05-1.88-.05-2.82,0v-.29Z"/><path class="cls-1" d="M104.1,9.43h.35c-.35,.89-1.33,1.59-2.68,1.59-2,0-3.42-1.48-3.42-3.99s1.25-4.04,3.24-4.04c1.5,0,2.91,.86,2.91,2.81,0,.63-.15,.97-.65,.97h-4.26c.08,2.28,1,3.84,2.62,3.84,.66,0,1.51-.28,1.88-1.17Zm-4.5-2.99h3.7c.19-1.97-.51-3.16-1.83-3.16-1.22,0-1.85,1.05-1.87,3.16Z"/></g><g><path class="cls-1" d="M6.84,24.14c.77-.17,1.05-.32,1.05-.97v-6.81c0-.69-.15-1.11-1.05-1.2v-.29c1.25,.06,2.53,0,3.11,0,3.38,0,5.27,1.56,5.27,4.62s-1.88,4.95-4.47,4.95c-.77,0-1.65-.17-2.44-.17-.26,0-.68-.02-1.48,.17v-.29Zm7.21-4.29c0-2.56-1.08-4.67-3.96-4.67-.48,0-.82,.06-1.06,.14v7.85c0,.76,.76,.89,1.48,.89,2.71,0,3.55-1.96,3.55-4.21Z"/><path class="cls-1" d="M22.01,23.26c0,.57,.29,.89,.79,.82v.28c-.23,.22-.51,.25-.74,.25-.74,0-1.02-.48-1.02-1.13v-.23h-.11c-.39,.62-1.26,1.36-2.54,1.36-1.03,0-2.16-.51-2.16-1.94,0-1.19,.85-2.27,4.7-2.81v-.69c0-1.39-.17-2.27-1.57-2.27-2.3,0-.72,2.31-2.05,2.31-.45,0-.65-.28-.65-.71-.03-1.05,1.16-1.93,3.04-1.93s2.31,.76,2.31,2.54v4.15Zm-1.08-1.17v-1.91c-3.05,.42-3.42,1.43-3.42,2.2,0,1.19,.82,1.63,1.51,1.63,.99,0,1.91-.82,1.91-1.93Z"/><path class="cls-1" d="M23.29,24.14c.48-.06,.86-.22,.86-.91v-5.15c0-.49-.29-.57-.91-.52v-.29c.8-.11,1.45-.43,1.8-.72,.12,.05,.2,.12,.25,.26l-.29,1.65h.06c.09-.46,.72-1.88,2.45-1.88,1.03,0,2.31,.51,2.31,2.56v4.1c0,.69,.42,.85,.88,.91v.29c-.94-.05-1.88-.05-2.81,0v-.29c.46-.09,.85-.22,.85-.91v-4.05c0-1.11-.63-1.94-1.73-1.94s-1.79,.88-1.79,1.94v4.05c0,.69,.42,.82,.88,.91v.29c-.94-.05-1.88-.05-2.82,0v-.29Z"/><path class="cls-1" d="M31.2,24.14c.48-.06,.86-.22,.86-.91v-5.15c0-.51-.29-.57-.91-.52v-.29c.8-.11,1.45-.43,1.8-.72,.12,.05,.2,.12,.25,.26l-.31,1.65h.05c.14-.46,.66-1.88,2.34-1.88,.83,0,1.82,.34,2.11,1.7,.18-.59,.76-1.7,2.24-1.7,1.03,0,2.19,.51,2.19,2.58v4.08c0,.69,.42,.85,.88,.91v.29c-.94-.05-1.88-.05-2.81,0v-.29c.46-.09,.85-.22,.85-.91v-4.05c0-1.12-.49-1.94-1.54-1.94-1.13,0-1.73,.91-1.73,1.93v4.07c0,.69,.42,.82,.89,.91v.29c-.94-.05-1.9-.05-2.82,0v-.29c.48-.09,.86-.22,.86-.91v-4.05c0-1.12-.54-1.94-1.6-1.94s-1.66,.79-1.66,1.94v4.05c0,.69,.42,.82,.88,.91v.29c-.94-.05-1.88-.05-2.82,0v-.29Z"/><path class="cls-1" d="M49.03,23.26c0,.57,.29,.89,.79,.82v.28c-.23,.22-.51,.25-.74,.25-.74,0-1.02-.48-1.02-1.13v-.23h-.11c-.39,.62-1.26,1.36-2.54,1.36-1.03,0-2.16-.51-2.16-1.94,0-1.19,.85-2.27,4.7-2.81v-.69c0-1.39-.17-2.27-1.57-2.27-2.3,0-.72,2.31-2.05,2.31-.45,0-.65-.28-.65-.71-.03-1.05,1.16-1.93,3.04-1.93s2.31,.76,2.31,2.54v4.15Zm-1.08-1.17v-1.91c-3.05,.42-3.42,1.43-3.42,2.2,0,1.19,.82,1.63,1.51,1.63,.99,0,1.91-.82,1.91-1.93Z"/><path class="cls-1" d="M50.38,24.14c.45-.06,.86-.22,.86-.91v-5.15c0-.49-.29-.57-.91-.52v-.29c.8-.11,1.48-.45,1.83-.72,.12,.05,.2,.12,.25,.26l-.39,1.7h.09c.35-1.32,1.03-1.93,1.93-1.93,.77,0,1.25,.46,1.25,.96,0,.34-.23,.63-.59,.63-.62,0-.72-.77-1.33-.77-.74,0-1.06,1.14-1.06,1.83v4.01c0,.69,.54,.85,1.03,.91v.29c-1.03-.05-2.07-.05-2.98,0v-.29Z"/><path class="cls-1" d="M61.1,22.95c.69,.83,1.48,1.37,1.85,1.37l-.39,.29c-.94,0-1.79-.35-2.7-1.43l-2.1-2.53v2.57c0,.69,.43,.85,.91,.91v.29c-.96-.08-1.96-.08-2.91,0v-.29c.49-.06,.92-.22,.92-.91v-7.55c0-.68-.32-1.08-.86-1.08v-.29c.74-.12,1.26-.38,1.77-.72,.12,.05,.2,.12,.26,.26-.09,.31-.09,.89-.09,1.83v4.61c1.42-1.09,3.62-3.21,2.03-3.28v-.29c.99,.05,2.07,.05,2.77,0v.29c-.91,.08-1.59,.74-3.98,3.04l2.5,2.91Z"/></g><path class="cls-1" d="M0,24.14c.49-.06,.93-.22,.93-.91v-4.59c0-.68-.32-1.08-.86-1.08v-.29c.74-.12,1.26-.38,1.77-.72,.12,.05,.2,.12,.26,.26-.09,.31-.09,.89-.09,1.83v4.59c0,.69,.43,.85,.91,.91v.29c-.96-.08-1.96-.08-2.91,0v-.29ZM.65,14.47c0-.4,.32-.71,.71-.71s.72,.31,.72,.71-.34,.73-.72,.73-.71-.32-.71-.73Z"/></g></g></svg>