<?xml version="1.0" encoding="UTF-8"?><svg id="Layer_2" xmlns="http://www.w3.org/2000/svg" viewBox="0 0 446.75 81.75"><defs><style>.cls-1{fill:#323232;}</style></defs><g id="Layer_1-2"><g><path class="cls-1" d="M9.2,48.95l6.4-26.64c.72-3.12,1.04-5.04,1.04-6.88,0-2.96-1.12-5.2-3.12-6l.16-.64h30.47c11.84,0,17.84,3.52,17.84,10.48,0,8.4-7.6,15.04-18.8,15.84v.48c10.24,0,15.6,3.6,15.6,10.56,0,10.48-11.36,18.64-25.92,18.64H0l.16-.64c3.44-.96,7.12-7.2,9.04-15.2Zm19.52,14.4h.48c5.76,0,11.2-8.72,11.2-18,0-5.68-3.44-8.72-9.84-8.72h-.4l-3.84,15.68c-.48,2.08-.88,4.64-.88,6.72,0,3.2,1.36,4.32,3.28,4.32Zm2.16-28.16c7.36,0,14.8-8.48,14.8-16.8,0-5.68-2.48-8.16-7.44-8.16h-1.52l-6.16,24.96h.32Z"/><path class="cls-1" d="M63.83,56.95c0-3.68,2.08-9.28,3.36-12.96l7.76-23.04c.88-2.72,1.76-5.76,1.76-8.16,0-1.92-1.36-4.16-3.92-5.12v-.32h23.6l-13.52,39.35c-.72,2.08-1.6,5.76-1.6,8.32,0,2.72,1.6,4.56,4.24,4.56,2.24,0,4.32-1.2,5.92-3.12l.32,.48c-3.84,5.28-10.8,8.8-17.52,8.8s-10.4-3.52-10.4-8.8Z"/><path class="cls-1" d="M97.11,44.07l2.56-7.6c.88-2.64,1.76-5.92,1.76-8.16,0-1.92-1.68-4.48-3.92-5.12v-.32h23.6l-7.68,22.4c-1.68,4.96-2.24,7.28-2.24,9.76,0,2.8,1.68,4.56,4.16,4.56,2.24,0,4.32-1.12,6-3.12l.32,.48c-4,5.2-10.88,8.8-17.52,8.8s-10.4-3.44-10.4-8.8c0-2.8,.88-5.52,3.36-12.88Zm7.36-33.83L117.27,0l7.68,10.24-12.8,10.24-7.68-10.24Z"/><path class="cls-1" d="M125.51,54.07c0-2.88,.88-6.72,2.96-12.8l2.08-6c.88-2.48,1.68-4.96,1.68-6.8,0-2.08-1.04-3.12-3.12-3.12s-4.72,1.68-6.72,4.4l-.4-.48c2.88-4.64,7.68-7.36,12.96-7.36,7.44,0,11.84,3.12,11.84,9.12,0,2.56-.88,6.32-2.48,11.04l-1.84,5.44c-.88,2.72-1.44,5.92-1.44,8.64,0,3.92,1.84,6.4,4.64,6.4,6.8,0,12.48-10.16,12.48-21.92,0-8-2.48-13.04-7.28-14.96,1.84-2.48,4.4-3.76,7.68-3.76,5.68,0,10,5.36,10,12.32,0,16.32-13.36,31.51-27.6,31.51-9.84,0-15.44-4.08-15.44-11.68Z"/><path class="cls-1" d="M205.42,22.4l-6.8,29.75c-.56,2.56-.8,4.64-.8,7.04,0,2.08,.96,4.08,3.2,4.96l-.16,.64h-13.92l.16-.64c3.44-.96,7.28-6.88,9.12-14.88l6.32-26.96c.48-2.08,.88-4.48,.88-6.16,0-2.32-.96-5.28-2.96-6.72l.16-.64h16.72l23.92,34.07,5.04-19.68c.8-3.12,1.04-5.92,1.04-7.92,0-2.8-1.12-5.04-3.12-5.84l.16-.64h13.68l-.16,.64c-3.84,1.52-7.04,6.8-9.28,15.84l-9.92,39.51h-4.32l-28.96-42.39Z"/><path class="cls-1" d="M251.41,48.95c0-15.36,13.92-27.04,30-27.04,14.24,0,20.32,6.72,20.32,16.8,0,15.36-13.92,27.04-30.07,27.04-14.24,0-20.24-6.72-20.24-16.8Zm20.48,15.68c6.08,0,13.28-16.32,13.28-33.51,0-5.12-1.12-8.08-3.92-8.08-6,0-13.28,16.56-13.28,33.51,0,5.2,1.2,8.08,3.92,8.08Z"/><path class="cls-1" d="M305.09,71.19c0-3.44,2-5.92,5.2-5.92,1.12,0,2.4,.32,3.04,.8-.32,1.28-.64,2.88-.64,4.64,0,5.92,3.04,9.92,7.12,9.92,5.6,0,10.48-7.92,14.88-24l2.4-8.72-.64-.16c-4.72,13.44-11.04,18-18.32,18-9.2,0-13.04-6.32-13.04-15.6,0-12.4,8.56-28.24,22.48-28.24,6.08,0,12,3.44,11.68,11.76h.4l4.8-10.8h15.36l-8.96,30.63c-6.72,22.88-13.2,28.24-31.51,28.24-8.72,0-14.24-4.24-14.24-10.56Zm20.64-10.96c5.36,0,12.48-15.28,12.48-26.48,0-4.88-1.52-7.6-4.32-7.6-5.36,0-12.08,14.16-12.08,25.36,0,4.88,1.2,8.72,3.92,8.72Z"/><path class="cls-1" d="M359.24,48.55c0-15.28,11.68-26.64,28.48-26.64,10.08,0,15.28,3.2,15.28,10.08,0,8-8.88,14.64-19.44,14.64-2.48,0-4.8-.32-7.12-1.04-.24,2-.4,4.08-.4,6.08,0,7.68,2.48,11.84,7.36,11.84,6,0,9.92-5.6,9.92-12.4,0-1.6-.4-3.04-1.04-4.16,.8-.4,2.08-.64,3.12-.64,2.72,0,4.4,1.68,4.4,4.4,0,8.16-10.16,15.04-20,15.04-14.4,0-20.56-6.8-20.56-17.2Zm19.28-3.68c6.16,0,14.24-9.44,14.24-16.72,0-2.96-1.2-4.96-3.6-4.96-5.6,0-10.96,10-12.64,21.52,.72,.08,1.36,.16,2,.16Z"/><path class="cls-1" d="M406.75,53.91c0-4.48,1.12-8.8,2.88-14.4l4.72-15.2h-6.88l.16-.8c16.64-.32,23.44-4.56,27.68-12.64h.96l-3.28,12h13.76l-.4,1.76-13.76-.08-5.36,17.04c-1.84,5.92-2.88,11.52-2.88,15.2,0,4.16,1.44,6.88,4.32,6.88,3.92,0,6.88-5.44,6.88-12.32,0-3.28-.96-6.16-2.24-7.84,1.12-.8,2.72-1.2,4.24-1.2,3.44,0,6.16,2.8,6.16,6.96,0,9.28-9.28,16.48-20.48,16.48s-16.48-4-16.48-11.84Z"/></g></g></svg>