<?xml version="1.0" encoding="utf-8"?>
<!-- Generator: Adobe Illustrator 26.3.1, SVG Export Plug-In . SVG Version: 6.00 Build 0)  -->
<svg version="1.1" id="Layer_2_00000074429139240089294790000009026176170003785091_"
	 xmlns="http://www.w3.org/2000/svg" xmlns:xlink="http://www.w3.org/1999/xlink" x="0px" y="0px" viewBox="0 0 20.4 13.9"
	 style="enable-background:new 0 0 20.4 13.9;" xml:space="preserve">
<style type="text/css">
	.st0{fill:#FFB36B;}
</style>
<g id="Layer_1-2">
	<g transform="translate(135.8731460571289, -3.694286346435547)">
		<path class="st0" d="M-115.7,12c-0.4,1.6-1.3,2.9-2.9,4c-1.6,1.1-3.5,1.6-5.6,1.6c-2.2-0.1-3.6-1-4.2-2.6
			c-0.6-1.6-1.9-2.6-3.9-2.9s-3.2-1.1-3.5-2.5s1-3.5,3.1-3.9c2.2-0.3,3.4,0.7,4.5,0.7c1.1,0,2.4-0.6,4-1.8s3.1-1.2,4.4-0.3
			s2.4,2.1,3.3,3.4S-115.3,10.4-115.7,12L-115.7,12z"/>
	</g>
</g>
</svg>
