<?xml version="1.0" encoding="utf-8"?>
<!-- Generator: Adobe Illustrator 26.3.1, SVG Export Plug-In . SVG Version: 6.00 Build 0)  -->
<svg version="1.1" id="Layer_2_00000048494061165560327810000004613309515461563318_"
	 xmlns="http://www.w3.org/2000/svg" xmlns:xlink="http://www.w3.org/1999/xlink" x="0px" y="0px" viewBox="0 0 194.6 137.2"
	 style="enable-background:new 0 0 194.6 137.2;" xml:space="preserve">
<style type="text/css">
	.st0{fill:#363062;}
</style>
<g id="Layer_1-2">
	<g transform="translate(135.8731460571289, -3.694286346435547)">
		<path class="st0" d="M58,88.4c3,9.2-2.3,15.3-15.9,18.6s-22.4,9.4-26.3,18.6c-4,9.2-12,12.8-24,10.9s-23.8-1.1-35.3,2.3
			s-22.2,2.8-32.1-2s-20.2-9.6-31-14.5c-10.8-4.9-17.7-11.8-20.8-20.8c-3.1-8.9-5.7-18-7.9-27.3c-2.1-9.3,1.8-17.1,11.9-23.6
			s19.2-12.1,27.4-16.9S-80,22.8-72.4,15.4c7.5-7.4,17.3-11.3,29.3-11.7c12-0.4,23.3,1.4,33.8,5.5S11.9,17,22.9,20.3
			S42.4,29.2,48.2,37s8.1,16,7,24.7C54.1,70.3,55,79.2,58,88.4L58,88.4z"/>
	</g>
</g>
</svg>
