<svg xmlns="http://www.w3.org/2000/svg" viewBox="0 0 6924.95 1215.13"><defs><style>.cls-1{fill:#363062;}</style></defs><g id="Layer_2" data-name="Layer 2"><g id="Layer_4" data-name="Layer 4"><path class="cls-1" d="M6925,1215.13a996.35,996.35,0,0,0-25.06-133c-15.36-58.9-92.1-353.27-261-383-164.54-29-273,218.49-414,178-114.94-33-76-207.06-242-382-106.93-112.7-308.52-235.92-466-182-159.64,54.67-179,258.87-299,254-79.46-3.22-89.55-93.54-209-129-108.19-32.11-151.83,44.62-261,23-221.67-43.89-251.9-230.92-431-254-205.08-26.42-304.31,200.91-455,144-113.17-42.73-83.3-180.81-243-282-15.63-9.9-133.51-82.38-280-67-219.09,23-244,215.45-421,219-164.72,3.32-231.66-161.62-391-125-63.37,14.57-71.8,45-144,90-203.63,126.87-343.47,13.58-577,86-254.12,78.8-248.09,262.41-416,256-144.76-5.52-171.81-142.86-440-304-138.65-83.31-261.6-157.18-370-147C298.67,103.55-17.39,708.19.75,1215.13Z"/></g></g></svg>